<svg width="32" height="32" viewBox="0 0 32 32" fill="none" xmlns="http://www.w3.org/2000/svg">
<g clip-path="url(#clip0_5_194)">
<path d="M3.55556 4.44446C2.61256 4.44446 1.70819 4.81906 1.0414 5.48586C0.374602 6.15265 0 7.05702 0 8.00001L0 24C0 24.943 0.374602 25.8474 1.0414 26.5142C1.70819 27.181 2.61256 27.5556 3.55556 27.5556H16V4.44446H3.55556Z" fill="#006233"/>
<path d="M28.4444 4.44446H16V27.5556H28.4444C29.3874 27.5556 30.2918 27.181 30.9586 26.5142C31.6254 25.8474 32 24.943 32 24V8.00001C32 7.05702 31.6254 6.15265 30.9586 5.48586C30.2918 4.81906 29.3874 4.44446 28.4444 4.44446Z" fill="#EEEEEE"/>
<path d="M17.7778 21.3333C14.8311 21.3333 12.4444 18.9467 12.4444 16C12.4444 13.0542 14.8311 10.6667 17.7778 10.6667C18.9422 10.6667 20.0178 11.0444 20.8951 11.6782C20.2834 10.9824 19.5304 10.425 18.6863 10.0432C17.8422 9.66141 16.9264 9.46394 16 9.46399C14.2665 9.46399 12.6041 10.1526 11.3783 11.3783C10.1526 12.6041 9.46399 14.2665 9.46399 16C9.46387 16.8584 9.63284 17.7084 9.96126 18.5015C10.2897 19.2946 10.7711 20.0152 11.378 20.6222C11.985 21.2292 12.7055 21.7108 13.4986 22.0393C14.2916 22.3678 15.1416 22.5369 16 22.5369C17.9511 22.5369 19.6978 21.6773 20.8951 20.3218C19.9889 20.9798 18.8976 21.3339 17.7778 21.3333Z" fill="#D20F34"/>
<path d="M22.4907 16.2045L20.3218 16.704L20.1263 18.92L18.9814 17.0125L16.8125 17.5111L18.2738 15.8329L17.1298 13.9245L19.1769 14.7956L20.6383 13.1165L20.4427 15.3333L22.4907 16.2045Z" fill="#D20F34"/>
</g>
<defs>
<clipPath id="clip0_5_194">
<rect width="32" height="32" fill="white"/>
</clipPath>
</defs>
</svg>
