<svg width="33" height="32" viewBox="0 0 33 32" fill="none" xmlns="http://www.w3.org/2000/svg">
<g clip-path="url(#clip0_5_168)">
<path d="M32.5 24C32.5 24.943 32.1254 25.8474 31.4586 26.5142C30.7918 27.181 29.8874 27.5556 28.9444 27.5556H21.8333V4.44446H28.9444C29.8874 4.44446 30.7918 4.81906 31.4586 5.48586C32.1254 6.15265 32.5 7.05702 32.5 8.00001V24Z" fill="#CE2B37"/>
<path d="M4.05556 4.44446C3.11256 4.44446 2.20819 4.81906 1.5414 5.48586C0.874602 6.15265 0.5 7.05702 0.5 8.00001L0.5 24C0.5 24.943 0.874602 25.8474 1.5414 26.5142C2.20819 27.181 3.11256 27.5556 4.05556 27.5556H11.1667V4.44446H4.05556Z" fill="#009246"/>
<path d="M11.1667 4.44446H21.8334V27.5556H11.1667V4.44446Z" fill="#EEEEEE"/>
</g>
<defs>
<clipPath id="clip0_5_168">
<rect width="32" height="32" fill="white" transform="translate(0.5)"/>
</clipPath>
</defs>
</svg>
