<svg width="33" height="32" viewBox="0 0 33 32" fill="none" xmlns="http://www.w3.org/2000/svg">
<g clip-path="url(#clip0_5_182)">
<path d="M32.5 24C32.5 24.943 32.1254 25.8474 31.4586 26.5142C30.7918 27.181 29.8874 27.5556 28.9444 27.5556H4.05556C3.11256 27.5556 2.20819 27.181 1.5414 26.5142C0.874602 25.8474 0.5 24.943 0.5 24V8.00001C0.5 7.05702 0.874602 6.15265 1.5414 5.48586C2.20819 4.81906 3.11256 4.44446 4.05556 4.44446H28.9444C29.8874 4.44446 30.7918 4.81906 31.4586 5.48586C32.1254 6.15265 32.5 7.05702 32.5 8.00001V24Z" fill="#006600"/>
<path d="M28.9445 4.44446H13.8334V27.5556H28.9445C29.8875 27.5556 30.7918 27.181 31.4586 26.5142C32.1254 25.8474 32.5 24.943 32.5 24V8.00001C32.5 7.05702 32.1254 6.15265 31.4586 5.48586C30.7918 4.81906 29.8875 4.44446 28.9445 4.44446Z" fill="#D52B1E"/>
<path d="M13.8333 8.88892C11.9473 8.88892 10.1386 9.63812 8.80496 10.9717C7.47137 12.3053 6.72217 14.114 6.72217 16C6.72217 17.886 7.47137 19.6948 8.80496 21.0283C10.1386 22.3619 11.9473 23.1111 13.8333 23.1111C15.7193 23.1111 17.528 22.3619 18.8616 21.0283C20.1952 19.6948 20.9444 17.886 20.9444 16C20.9444 14.114 20.1952 12.3053 18.8616 10.9717C17.528 9.63812 15.7193 8.88892 13.8333 8.88892ZM8.3995 12.9725L9.8235 14.3965L7.63683 15.4898C7.7074 14.6057 7.96752 13.7471 8.3995 12.9725ZM7.63683 16.5094L11.5479 18.4711L9.14261 20.0747L9.15506 20.0934C8.27673 19.093 7.74432 17.8362 7.63683 16.5094ZM12.9444 22.1511C12.1296 22.0349 11.3462 21.7568 10.6404 21.3334H12.9444V22.1511ZM12.9444 20.4445H10.1897L12.9444 18.608V20.4445ZM12.9444 17.5396L12.4048 17.8996L8.60483 16L10.4857 15.0596L12.9444 17.5174V17.5396ZM12.9444 16.2605L9.79506 13.1111L12.9444 13.6356V16.2605ZM12.9444 12.712L9.00483 12.0782C9.99058 10.8657 11.3974 10.0696 12.9444 9.84892V12.712ZM19.2671 12.9725C19.6992 13.7474 19.9593 14.6063 20.0297 15.4907L17.8431 14.3974L19.2671 12.9725ZM14.7222 9.84892C16.269 10.07 17.6757 10.866 18.6617 12.0782L14.7222 12.712V9.84892ZM14.7222 13.6356L17.8715 13.1102L14.7222 16.2605V13.6356ZM14.7222 17.5174L17.1799 15.0596L19.0617 16L15.2626 17.8996L14.7222 17.5396V17.5174ZM14.7222 22.1511V21.3334H17.0262C16.3204 21.7568 15.537 22.0349 14.7222 22.1511ZM14.7222 20.4445V18.608L17.4768 20.4445H14.7222ZM18.5124 20.0934L18.5248 20.0747L16.1195 18.4711L20.0306 16.5094C19.9223 17.836 19.39 19.0926 18.5124 20.0934Z" fill="#FFCC4D"/>
<path d="M10.2778 11.5555V17.7778C10.2778 18.7208 10.6524 19.6251 11.3192 20.2919C11.986 20.9587 12.8904 21.3333 13.8334 21.3333C14.7764 21.3333 15.6807 20.9587 16.3475 20.2919C17.0143 19.6251 17.3889 18.7208 17.3889 17.7778V11.5555H10.2778Z" fill="#D52B1E"/>
<path d="M11.1666 12.4445V17.7778C11.1666 18.485 11.4476 19.1633 11.9477 19.6634C12.4478 20.1635 13.126 20.4445 13.8333 20.4445C14.5405 20.4445 15.2188 20.1635 15.7189 19.6634C16.219 19.1633 16.5 18.485 16.5 17.7778V12.4445H11.1666Z" fill="white"/>
<path d="M12.0555 15.1111H15.6111V16.8889H12.0555V15.1111Z" fill="#829ACD"/>
<path d="M12.9445 14.2222H14.7222V17.7778H12.9445V14.2222Z" fill="#829ACD"/>
<path d="M11.1666 15.1111H12.0555V16.8889H11.1666V15.1111ZM12.9444 15.1111H14.7222V16.8889H12.9444V15.1111ZM15.6111 15.1111H16.5V16.8889H15.6111V15.1111ZM12.9444 17.7778H14.7222V19.5556H12.9444V17.7778ZM12.9444 12.4445H14.7222V14.2222H12.9444V12.4445Z" fill="#003399"/>
</g>
<defs>
<clipPath id="clip0_5_182">
<rect width="32" height="32" fill="white" transform="translate(0.5)"/>
</clipPath>
</defs>
</svg>
