<svg width="33" height="32" viewBox="0 0 33 32" fill="none" xmlns="http://www.w3.org/2000/svg">
<g clip-path="url(#clip0_5_172)">
<path d="M32.5 24C32.5 24.943 32.1254 25.8474 31.4586 26.5142C30.7918 27.181 29.8874 27.5556 28.9444 27.5556H4.05556C3.11256 27.5556 2.20819 27.181 1.5414 26.5142C0.874602 25.8474 0.5 24.943 0.5 24V8.00001C0.5 7.05702 0.874602 6.15265 1.5414 5.48586C2.20819 4.81906 3.11256 4.44446 4.05556 4.44446H28.9444C29.8874 4.44446 30.7918 4.81906 31.4586 5.48586C32.1254 6.15265 32.5 7.05702 32.5 8.00001V24Z" fill="#C60A1D"/>
<path d="M0.5 10.6666H32.5V21.3333H0.5V10.6666Z" fill="#FFC400"/>
<path d="M8.5 15.1111V17.7778C8.5 18.485 8.78095 19.1633 9.28105 19.6634C9.78115 20.1635 10.4594 20.4444 11.1667 20.4444C11.8739 20.4444 12.5522 20.1635 13.0523 19.6634C13.5524 19.1633 13.8333 18.485 13.8333 17.7778V15.1111H8.5Z" fill="#EA596E"/>
<path d="M11.1666 14.2222H13.8333V16.8888H11.1666V14.2222Z" fill="#F4A2B2"/>
<path d="M8.5 14.2222H11.1667V16.8888H8.5V14.2222Z" fill="#DD2E44"/>
<path d="M11.1667 14.2222C12.6394 14.2222 13.8333 13.6253 13.8333 12.8889C13.8333 12.1525 12.6394 11.5555 11.1667 11.5555C9.69391 11.5555 8.5 12.1525 8.5 12.8889C8.5 13.6253 9.69391 14.2222 11.1667 14.2222Z" fill="#EA596E"/>
<path d="M11.1667 12.8889C12.6394 12.8889 13.8333 12.5904 13.8333 12.2222C13.8333 11.854 12.6394 11.5555 11.1667 11.5555C9.69391 11.5555 8.5 11.854 8.5 12.2222C8.5 12.5904 9.69391 12.8889 11.1667 12.8889Z" fill="#FFAC33"/>
<path d="M6.72217 14.2222H7.61106V20.4444H6.72217V14.2222ZM14.7222 14.2222H15.6111V20.4444H14.7222V14.2222Z" fill="#99AAB5"/>
<path d="M5.83337 19.5556H8.50004V20.4445H5.83337V19.5556ZM13.8334 19.5556H16.5V20.4445H13.8334V19.5556ZM6.72226 13.3334H7.61115V14.2223H6.72226V13.3334ZM14.7223 13.3334H15.6112V14.2223H14.7223V13.3334Z" fill="#66757F"/>
</g>
<defs>
<clipPath id="clip0_5_172">
<rect width="32" height="32" fill="white" transform="translate(0.5)"/>
</clipPath>
</defs>
</svg>
