<svg width="32" height="32" viewBox="0 0 32 32" fill="none" xmlns="http://www.w3.org/2000/svg">
<path d="M13.7778 27.5556H28.4444C30.408 27.5556 32 25.9636 32 23.5556V18.2222H13.7778V27.5556ZM28.4444 4.44446H13.7778V13.7778H32V8.00001C32 7.05702 31.6254 6.15265 30.9586 5.48586C30.2918 4.81906 29.3874 4.44446 28.4444 4.44446ZM9.33333 4.44446H3.55556C2.61303 4.44446 1.70906 4.81869 1.04234 5.48491C0.375621 6.15113 0.000706898 7.05482 0 7.99735L0 13.7778H9.33333V4.44446ZM0 18.2222V23.5591C0.00177778 25.9653 1.59289 27.5556 3.55556 27.5556H9.33333V18.2222H0Z" fill="#006AA7"/>
<path d="M13.7778 4.44446H9.33333V13.7778H0V18.2222H9.33333V27.5556H13.7778V18.2222H32V13.7778H13.7778V4.44446Z" fill="#FECC00"/>
</svg>
