<svg width="33" height="32" viewBox="0 0 33 32" fill="none" xmlns="http://www.w3.org/2000/svg">
<g clip-path="url(#clip0_5_131)">
<path d="M32.5 21.5C32.5 24.5375 30.8135 27 27.5 27H5.5C2.1865 27 0.5 24.5375 0.5 21.5V10.5C0.5 7.4625 2.1865 5 5.5 5H27.5C30.8135 5 32.5 7.4625 32.5 10.5V21.5Z" fill="#EC1C24"/>
<path fill-rule="evenodd" clip-rule="evenodd" d="M20.389 19.16C19.238 20.9555 16.8415 22.088 14.334 21.3555C11.9675 20.6625 10.342 18.3695 10.4765 15.8965C10.6075 13.4125 12.4735 11.3 14.8985 10.8715C17.468 10.415 19.532 11.7925 20.4135 13.2345C19.369 12.2075 18.1545 11.745 16.7325 11.9075C15.6185 12.0355 14.6875 12.539 13.9585 13.389C12.5315 15.05 12.584 17.541 14.074 19.1085C14.9285 20.0075 15.9795 20.478 17.22 20.4895C18.4595 20.4985 19.511 20.0295 20.392 19.1625" fill="white"/>
<path d="M22.615 14.198L23.63 15.14L24.984 14.84L24.4005 16.1L25.105 17.2905L23.73 17.125L22.8105 18.165L22.545 16.804L21.271 16.252L22.482 15.58L22.615 14.198Z" fill="white"/>
</g>
<defs>
<clipPath id="clip0_5_131">
<rect width="32" height="32" fill="white" transform="translate(0.5)"/>
</clipPath>
</defs>
</svg>
