<svg width="32" height="32" viewBox="0 0 32 32" fill="none" xmlns="http://www.w3.org/2000/svg">
<g clip-path="url(#clip0_5_191)">
<path d="M28.4444 4.44446H13.3333V14.2222H32V8.00001C32 7.05702 31.6254 6.15265 30.9586 5.48586C30.2918 4.81906 29.3874 4.44446 28.4444 4.44446ZM13.3333 27.5556H28.4444C30.408 27.5556 32 25.9636 32 23.5556V17.7778H13.3333V27.5556ZM0 17.7778V23.5556C0 25.9636 1.592 27.5556 3.55556 27.5556H9.77778V17.7778H0ZM9.77778 4.44446H3.55556C2.61256 4.44446 1.70819 4.81906 1.0414 5.48586C0.374602 6.15265 0 7.05702 0 8.00001L0 14.2222H9.77778V4.44446Z" fill="#C60C30"/>
<path d="M13.3333 4.44446H9.77778V14.2222H0V17.7778H9.77778V27.5556H13.3333V17.7778H32V14.2222H13.3333V4.44446Z" fill="#EEEEEE"/>
</g>
<defs>
<clipPath id="clip0_5_191">
<rect width="32" height="32" fill="white"/>
</clipPath>
</defs>
</svg>
