<svg width="13" height="14" viewBox="0 0 13 14" fill="none" xmlns="http://www.w3.org/2000/svg">
<path d="M10.5609 4.82743L6.49999 8.78593L2.43911 4.82743C2.36656 4.75656 2.26916 4.71688 2.16774 4.71688C2.06631 4.71688 1.96891 4.75656 1.89636 4.82743C1.86123 4.86185 1.83332 4.90294 1.81427 4.94828C1.79521 4.99362 1.7854 5.04231 1.7854 5.09149C1.7854 5.14068 1.79521 5.18936 1.81427 5.23471C1.83332 5.28005 1.86123 5.32113 1.89636 5.35555L6.21642 9.56755C6.29229 9.6415 6.39404 9.68289 6.49999 9.68289C6.60593 9.68289 6.70768 9.6415 6.78355 9.56755L11.1036 5.35637C11.139 5.32192 11.1671 5.28074 11.1863 5.23524C11.2055 5.18975 11.2154 5.14087 11.2154 5.09149C11.2154 5.04211 11.2055 4.99324 11.1863 4.94774C11.1671 4.90225 11.139 4.86106 11.1036 4.82662C11.0311 4.75574 10.9337 4.71606 10.8322 4.71606C10.7308 4.71606 10.6334 4.75574 10.5609 4.82662V4.82743Z" fill="black"/>
</svg>
