<svg width="103" height="123" viewBox="0 0 103 123" fill="none" xmlns="http://www.w3.org/2000/svg">
<path d="M45.4917 111.896V99.9375H33.4751V87.9792H45.4917V75.4229C37.5808 74.0278 31.0958 70.2649 26.0367 64.1342C20.9777 58.0036 18.4502 50.9043 18.4542 42.8365C18.4542 33.7681 21.6847 26.0709 28.1457 19.7449C34.6066 13.419 42.3914 10.254 51.5001 10.25C60.6127 10.25 68.3995 13.415 74.8605 19.7449C81.3214 26.0749 84.5499 33.772 84.5459 42.8365C84.5459 50.9083 82.0164 58.0096 76.9574 64.1402C71.8984 70.2709 65.4154 74.0318 57.5084 75.4229V87.9792H69.5251V99.9375H57.5084V111.896H45.4917ZM51.5001 64.0625C57.3081 64.0625 62.265 62.0196 66.3707 57.9339C70.4764 53.8481 72.5292 48.9153 72.5292 43.1354C72.5292 37.3556 70.4764 32.4227 66.3707 28.337C62.265 24.2512 57.3081 22.2083 51.5001 22.2083C45.692 22.2083 40.7351 24.2512 36.6294 28.337C32.5237 32.4227 30.4709 37.3556 30.4709 43.1354C30.4709 48.9153 32.5237 53.8481 36.6294 57.9339C40.7351 62.0196 45.692 64.0625 51.5001 64.0625Z" fill="#EA596E"/>
</svg>
