<svg width="33" height="32" viewBox="0 0 33 32" fill="none" xmlns="http://www.w3.org/2000/svg">
<g clip-path="url(#clip0_5_164)">
<path d="M0.5 24C0.5 24.943 0.874602 25.8474 1.5414 26.5142C2.20819 27.181 3.11256 27.5556 4.05556 27.5556H28.9444C29.8874 27.5556 30.7918 27.181 31.4586 26.5142C32.1254 25.8474 32.5 24.943 32.5 24V20.4445H0.5V24Z" fill="#FFCD05"/>
<path d="M0.5 12.4445H32.5V20.4445H0.5V12.4445Z" fill="#ED1F24"/>
<path d="M28.9444 4.44446H4.05556C3.11256 4.44446 2.20819 4.81906 1.5414 5.48586C0.874602 6.15265 0.5 7.05702 0.5 8.00001L0.5 12.4445H32.5V8.00001C32.5 7.05702 32.1254 6.15265 31.4586 5.48586C30.7918 4.81906 29.8874 4.44446 28.9444 4.44446Z" fill="#141414"/>
</g>
<defs>
<clipPath id="clip0_5_164">
<rect width="32" height="32" fill="white" transform="translate(0.5)"/>
</clipPath>
</defs>
</svg>
