<svg width="33" height="32" viewBox="0 0 33 32" fill="none" xmlns="http://www.w3.org/2000/svg">
<g clip-path="url(#clip0_5_156)">
<path d="M31.4187 4.9063C21.45 2.58755 11.4812 7.75005 1.50625 5.42505C0.95 5.30005 0.5 5.6188 0.5 6.17505V25.825C0.5 26.3813 0.95 26.9625 1.50625 27.0938C11.475 29.4125 21.4437 24.25 31.4187 26.575C31.975 26.7063 32.425 26.3875 32.425 25.8313V6.1813C32.425 5.6188 31.975 5.03755 31.4187 4.9063Z" fill="#0B67B2"/>
<path d="M32.425 6.17505C32.425 5.6188 31.975 5.03755 31.4187 4.9063C31.3562 4.8938 31.2875 4.87505 31.225 4.86255L20.1187 11.625V4.67505C17.6812 4.9688 15.2437 5.3688 12.8062 5.66255V11.55L3.3125 5.7688C2.7125 5.6813 2.1125 5.5688 1.50625 5.42505C0.95 5.30005 0.5 5.6188 0.5 6.17505V7.47505L8.5 12.3438H0.5V19.6563H8.86875L0.5 24.75V25.8251C0.5 26.3813 0.95 26.9625 1.50625 27.0938C1.69375 27.1375 1.88125 27.175 2.0625 27.2125L12.8 20.6688V27.3188C15.2375 27.025 17.675 26.625 20.1125 26.3313V20.5875L29.2937 26.1875C30 26.2813 30.7062 26.4063 31.4125 26.5751C31.9687 26.7063 32.4187 26.3875 32.4187 25.8313V24.6813L24.175 19.6625H32.4187V12.35H24.5437L32.4187 7.5563C32.425 7.08755 32.425 6.6313 32.425 6.17505Z" fill="#FF473E"/>
<path d="M26.3062 20.2187L32.425 23.9437V25.4062L23.9062 20.2187H20.7L30.9687 26.475C29.9312 26.2562 28.8875 26.1187 27.85 26.0375L20.6812 21.6749V26.275C20.3062 26.3187 19.9312 26.3625 19.5562 26.4125V19.1H32.425V20.225H26.3062V20.2187ZM12.2437 27.3937C12.6187 27.3499 12.9937 27.3062 13.3687 27.2562V19.0937H0.5V20.2187H6.74375L0.5 24.0187V25.4812L9.14375 20.2187H12.2437V20.2812L1.23125 26.9874C1.31875 27.0312 1.4125 27.0687 1.50625 27.0937C2 27.2062 2.49375 27.3062 2.9875 27.3875L12.2437 21.75V27.3937ZM0.5 11.7812V12.9062H13.3687V5.5937C12.9937 5.6437 12.6187 5.68745 12.2437 5.7312V10.4812L4.79375 5.9437C3.71875 5.84995 2.64375 5.6937 1.56875 5.4437L11.975 11.7812H8.76875L0.5 6.7437V8.2062L6.375 11.7812H0.5ZM20.6812 4.6062C20.3062 4.64995 19.9312 4.6937 19.5562 4.7437V12.9062H32.425V11.7812H26.675L32.425 8.2812V6.8187L24.275 11.7812H21.0687L31.925 5.1687C31.775 5.0437 31.6062 4.94995 31.4187 4.9062C31.05 4.8187 30.6875 4.74995 30.3187 4.6812L20.6812 10.55V4.6062Z" fill="#E8E8E8"/>
</g>
<defs>
<clipPath id="clip0_5_156">
<rect width="32" height="32" fill="white" transform="translate(0.5)"/>
</clipPath>
</defs>
</svg>
