<svg width="62" height="62" viewBox="0 0 62 62" fill="none" xmlns="http://www.w3.org/2000/svg">
<rect width="62" height="62" fill="#BCCBD5"/>
<path d="M31 55.1542L27.2541 51.7442C13.95 39.68 5.16663 31.6975 5.16663 21.9583C5.16663 13.9758 11.4183 7.75 19.375 7.75C23.87 7.75 28.1841 9.8425 31 13.1233C33.8158 9.8425 38.13 7.75 42.625 7.75C50.5816 7.75 56.8333 13.9758 56.8333 21.9583C56.8333 31.6975 48.05 39.68 34.7458 51.7442L31 55.1542Z" fill="#DCE0E4"/>
<g clip-path="url(#clip0_10_348)">
<path d="M49.111 23.7808C49.209 23.9276 49.356 24.1233 49.454 24.2701C49.601 24.368 49.699 24.2212 49.797 24.1723C49.895 23.8787 49.601 23.6829 49.699 23.3893C49.797 23.2425 49.895 23.1935 50.042 23.2914C50.385 23.4872 50.777 23.3893 51.169 23.4872C51.365 23.585 51.561 23.6829 51.757 23.7318C52.051 23.9276 52.149 24.1723 52.149 24.5148C52.1 25.2978 52.198 26.0318 52.1 26.8148C52.051 26.8148 51.953 26.8148 51.953 26.9127C51.904 27.0595 51.61 26.8148 51.61 27.1084C51.855 27.4021 51.757 27.7935 52.002 28.0872C52.1 28.185 51.953 28.3318 51.855 28.2829C51.365 27.9893 51.12 28.3808 50.777 28.5765C50.532 28.7233 50.385 28.968 50.189 29.1148C50.042 29.1148 49.944 29.2616 49.846 29.3595C49.748 29.4574 49.65 29.6042 49.454 29.4084C49.356 29.3106 49.258 29.3106 49.209 29.3595C48.964 29.5553 48.67 29.5553 48.376 29.6042C47.935 29.6531 47.641 30.0446 47.543 30.5829C47.592 30.7297 47.837 30.6808 47.886 30.8276C47.935 31.0723 47.886 31.268 47.592 31.4638C47.347 31.6106 47.494 31.9042 47.445 32.1489C47.249 32.2467 47.102 32.3935 47.102 32.6382C47.102 32.7361 47.004 32.785 46.906 32.834C46.612 32.785 46.563 33.0297 46.514 33.2255C46.465 33.3723 46.367 33.5191 46.22 33.4701C46.073 33.4212 46.073 33.2744 46.073 33.1276C46.024 32.785 46.024 32.4425 45.975 32.1489C45.926 32.0021 45.926 31.8553 45.975 31.7084C45.975 31.4638 45.926 31.2191 46.171 31.0233C46.22 30.8276 46.318 30.6318 46.563 30.5829C46.71 30.5829 46.759 30.4361 46.857 30.3382C47.2 29.8978 47.494 29.4574 47.935 29.0659C48.082 28.9191 48.18 28.7723 48.18 28.5765C48.18 28.4787 48.376 28.2829 48.18 28.234C48.033 28.185 47.837 28.2829 47.837 28.5276C47.788 28.8212 47.592 28.9191 47.396 29.0659C47.298 29.1148 47.151 29.1638 47.102 29.017C46.955 28.4297 46.563 28.7233 46.318 28.8212C45.975 29.0659 45.632 29.3595 45.632 29.8489C45.632 30.0935 45.436 30.0446 45.338 30.0935C45.191 30.1425 44.995 30.1914 44.946 30.0446C44.75 29.5553 44.456 29.7021 44.113 29.8489C43.819 29.9467 43.476 29.7999 43.182 29.9467C43.084 29.9467 43.035 29.9467 42.937 29.9467C42.79 30.0446 42.643 29.9467 42.496 30.0446C42.153 30.1425 42.055 30.4361 41.859 30.6808C41.516 31.0723 41.124 31.3659 40.879 31.8553C40.634 32.0999 40.879 32.1489 41.075 32.1978L41.173 32.2957C41.271 32.4425 41.369 32.6382 41.614 32.4425C41.81 32.2957 41.957 32.3446 42.055 32.5404C42.153 32.6872 42.202 32.8829 42.3 33.0297C42.349 33.1276 42.349 33.2255 42.3 33.2744C42.055 33.5191 42.153 33.8616 42.055 34.1553C41.908 34.7914 41.467 35.3297 41.173 35.917C41.026 36.1616 40.83 36.3574 40.585 36.5042C40.389 36.6021 40.144 36.7489 39.899 36.6021C39.85 36.651 39.801 36.651 39.801 36.6021C39.654 36.1127 39.654 36.0638 40.144 35.8191C40.193 35.7701 40.242 35.7212 40.291 35.6723C40.389 35.3787 40.585 35.085 40.634 34.7914C40.585 34.7425 40.585 34.7425 40.536 34.7425C40.046 35.0361 39.654 34.9872 39.409 34.4489L39.36 34.3999C38.723 34.2531 38.625 33.617 38.38 33.1276C38.184 32.7361 37.547 32.4914 37.155 32.6872C37.057 32.7361 37.008 32.834 37.008 32.9318C37.057 33.4212 36.616 33.6659 36.469 34.0574C36.42 34.2042 36.224 34.2042 36.077 34.1553C35.979 34.1063 35.832 34.0574 35.685 34.0574C35.44 34.0084 35.195 34.0574 34.95 34.1553C34.46 34.351 33.97 34.5467 33.48 34.0084C33.284 33.8127 33.039 33.8616 32.794 33.9106C32.549 33.9595 32.304 33.9106 32.157 33.6659C31.961 33.3723 31.618 33.3723 31.324 33.3233C31.128 33.2744 31.079 33.5191 31.079 33.6659C31.079 34.0084 30.883 34.0574 30.589 34.0574C30.393 34.0574 30.197 33.9595 30.001 33.8616C29.658 33.6659 29.266 33.6659 28.972 33.9595C28.531 34.3999 28.139 34.3021 27.551 33.8616C27.355 33.7148 27.159 33.568 26.865 33.568C26.473 33.568 26.13 33.4212 25.983 32.9808C25.934 32.834 25.836 32.6872 25.787 32.5404C25.64 32.2957 25.493 32.0021 25.15 32.3446C25.101 32.3936 25.003 32.4425 24.954 32.3935C24.66 32.1489 24.121 32.3446 23.974 31.8063C23.925 31.6106 23.68 31.6595 23.533 31.7084C23.288 31.7574 23.092 31.8553 22.847 31.9531C22.651 32.051 22.455 32.1489 22.259 32.1489C21.622 32.051 21.475 32.4914 21.328 32.9318C21.279 33.0787 21.279 33.1276 21.377 33.2255C21.671 33.4701 21.475 33.5191 21.23 33.568C21.083 33.617 20.985 33.617 20.838 33.568C20.74 33.5191 20.593 33.4701 20.495 33.5191C20.005 33.7148 19.613 33.4701 19.221 33.3233C18.976 33.2255 18.78 33.2744 18.584 33.4212C18.388 33.568 18.241 33.7148 18.045 33.8127C17.8 33.9106 17.849 34.1553 17.8 34.351C17.702 34.5957 17.849 34.6936 18.045 34.7914C18.143 34.8404 18.192 34.9382 18.241 34.9872C18.339 35.2318 18.339 35.4765 18.045 35.6723C17.849 35.7701 17.849 35.9659 17.898 36.1616C17.996 36.4063 18.045 36.6021 18.143 36.8467C18.143 37.2382 17.947 37.1404 17.751 37.0425C17.212 36.6999 16.624 36.5531 16.036 36.4063C15.987 36.4063 15.938 36.3574 15.889 36.3574C15.301 36.0148 15.252 35.917 15.497 35.2808C15.546 35.134 15.595 35.0361 15.644 34.8893C15.84 34.7425 15.987 34.6446 15.938 34.351C15.889 34.0574 15.693 34.0084 15.448 33.9106C15.007 33.8127 14.615 33.568 14.468 33.1276C14.419 32.9808 14.272 32.9808 14.125 33.0297C13.88 33.0297 13.831 32.9318 13.831 32.6872C13.88 32.2957 13.586 31.6595 13.243 31.4148C12.704 31.0723 12.606 30.1425 13.047 29.6531C13.145 29.4084 13.194 29.2127 13.047 28.968C12.998 28.9191 13.047 28.8701 13.047 28.8701C13.194 28.7233 13.341 28.5765 13.488 28.4297C13.684 28.185 13.733 27.9404 13.586 27.5978C13.39 27.2063 13.243 26.7659 13.439 26.2765C13.488 26.1297 13.488 25.9829 13.439 25.885C13.341 25.5914 13.194 25.2978 13.341 25.0042C13.39 24.8574 13.292 24.7595 13.243 24.6616C13.096 24.4659 13.047 24.2701 13.145 24.0255C13.194 23.9276 13.292 23.9276 13.39 23.8297C13.537 23.7318 13.635 23.634 13.782 23.5361C13.88 23.4872 13.978 23.3404 14.174 23.4382C14.223 23.5361 14.321 23.634 14.419 23.6829C14.664 23.8787 15.007 23.7318 15.301 23.9276C15.399 24.0255 15.546 24.1233 15.644 24.1723C15.84 24.4659 16.183 24.5638 16.33 24.8574C16.428 25.0531 16.428 25.2489 16.33 25.4446C15.84 26.0808 15.301 25.7382 14.811 25.4935C14.713 25.4446 14.566 25.2978 14.419 25.4446C14.321 25.5425 14.468 25.6893 14.517 25.7872C14.762 26.0808 14.664 26.4723 14.762 26.8148C14.86 27.0106 15.056 27.0106 15.203 27.0595C15.252 27.1084 15.301 27.1084 15.399 27.0595V27.0106C15.35 26.5212 15.35 26.5212 15.791 26.717C16.134 26.8148 16.183 26.8148 16.134 26.4723C16.183 25.934 16.526 25.5914 16.918 25.6893C17.016 25.7382 17.114 25.7872 17.163 25.6893C17.212 25.5914 17.359 25.4935 17.261 25.3467C16.967 25.0042 17.261 24.6616 17.114 24.3191C17.114 24.3191 17.212 24.2701 17.261 24.2212C17.457 24.2701 17.653 24.2701 17.8 24.4659C17.849 24.7106 17.702 24.8084 17.555 24.9063C17.506 25.0531 17.604 25.1999 17.653 25.3467L17.751 25.4446C17.947 25.5425 18.094 25.3957 18.29 25.3467C18.388 25.1999 18.29 25.0531 18.388 24.9063C18.486 24.8084 18.633 24.7106 18.731 24.6616C18.878 24.5638 19.025 24.5148 19.172 24.417C19.319 24.3191 19.466 24.2212 19.613 24.1723C19.711 24.1233 19.809 24.1233 19.809 24.2701V24.368C19.809 24.5638 19.956 24.5148 20.005 24.4659C20.201 24.2701 20.495 24.368 20.74 24.2701C20.887 24.2212 20.985 24.1233 21.132 24.2212C21.23 24.2701 21.328 24.417 21.426 24.2212C21.524 24.0744 21.72 23.9765 21.573 23.7318C21.475 23.585 21.377 23.4382 21.671 23.3404C21.867 23.3893 22.063 23.4382 22.259 23.5361C22.504 23.6829 22.7 23.8787 22.945 24.0255C23.043 24.1233 23.19 24.2212 23.288 24.2701C23.386 24.368 23.435 24.5638 23.582 24.417C23.68 24.3191 23.729 24.2212 23.631 24.0255C23.337 23.634 23.19 23.1935 23.19 22.7042C23.092 22.5084 23.141 22.3127 23.288 22.117C23.582 21.6765 23.68 21.1872 23.876 20.7467C24.023 20.7467 24.17 20.7957 24.317 20.8446C24.366 20.9425 24.464 20.9425 24.562 20.9425C24.709 21.1382 24.66 21.334 24.562 21.5297C24.317 21.9212 24.366 22.2638 24.562 22.6553C24.709 23.0957 24.611 23.4872 24.66 23.9276C25.003 24.4659 24.66 24.9063 24.513 25.3957C24.464 25.5425 24.268 25.6893 24.513 25.8361C24.66 25.7382 24.807 25.5914 24.954 25.4935C25.15 25.3957 25.052 25.1999 25.101 25.0531C25.297 24.7595 25.248 23.9765 25.003 23.8297C24.856 23.6829 24.954 23.4872 25.003 23.3404C25.15 22.9489 25.101 22.6063 24.905 22.2148C24.807 22.068 24.905 21.9212 25.003 21.7744C25.346 21.5787 25.15 21.2361 25.248 20.8935C25.493 21.2361 25.346 21.5787 25.346 21.9212C25.346 22.0191 25.297 22.1659 25.444 22.1659C25.64 22.1659 25.542 22.0191 25.542 21.9212C25.493 21.6276 25.689 21.5297 25.885 21.3829C26.081 21.334 26.277 21.334 26.473 21.3829C26.571 21.334 26.718 21.7255 26.816 21.3829C26.669 20.9914 26.767 20.5999 26.767 20.2084C26.767 20.0127 26.963 20.0127 27.11 19.9148C27.257 19.817 27.404 19.9638 27.551 19.9638C27.796 19.9638 28.09 19.9638 28.335 19.817C28.139 19.1318 28.286 18.8382 28.776 18.6425C29.07 18.3489 29.364 18.1042 29.805 18.0553C30.001 17.9574 30.148 17.7616 30.393 17.7127C30.638 17.517 30.785 17.9574 30.981 17.8106C31.079 17.6148 31.226 17.517 31.422 17.3701C31.471 17.3212 31.52 17.3212 31.569 17.3212C31.912 17.3701 32.059 17.2723 32.01 16.9297C32.01 16.8808 32.059 16.8318 32.059 16.7829C32.157 16.4404 32.402 16.2446 32.647 16.0489C32.794 15.951 32.892 15.951 33.039 16.0489C33.186 16.1957 33.137 16.2446 33.039 16.3425C32.941 16.4404 33.039 16.4893 33.088 16.5872C33.235 16.685 33.431 16.685 33.529 16.8318C33.529 16.9297 33.48 17.0765 33.627 17.1744C33.774 17.1744 33.774 16.9787 33.872 16.9787C34.117 16.9297 34.411 16.9297 34.656 16.9787C34.803 17.1255 34.95 17.2723 35.097 17.468C35.489 17.9084 35.44 18.2999 34.999 18.6914C34.852 18.8382 34.607 18.9361 34.509 19.1318C34.46 19.2297 34.362 19.3276 34.264 19.3765C34.117 19.8659 34.558 19.768 34.754 19.9148C34.852 20.0616 34.999 19.8659 35.097 19.9148C35.097 20.0616 35.097 20.2084 35.195 20.2574C35.244 20.3063 35.293 20.2084 35.342 20.1595C35.587 19.9148 35.832 20.0127 36.126 20.0616C36.273 20.1106 36.42 20.1106 36.567 20.2574C36.616 20.3553 36.616 20.4042 36.665 20.5021C37.057 20.5021 37.449 20.6978 37.841 20.5999C37.841 20.4531 37.841 20.2574 37.841 20.1106C37.988 20.0127 38.135 20.1595 38.282 20.2084C38.674 20.2084 38.968 20.4042 39.164 20.7467C39.311 21.1872 39.066 21.6765 39.36 22.117C39.507 22.2638 39.605 22.4595 39.752 22.5574C40.144 22.5084 39.703 21.7255 40.389 21.9212C40.536 22.0191 40.634 21.9701 40.781 21.9212C40.928 21.8723 41.026 21.8233 41.173 21.9212C41.32 22.068 41.516 22.117 41.712 22.0191C41.859 21.9212 42.006 22.068 42.153 21.9212C42.104 21.5787 41.761 21.1872 42.251 20.8935C42.398 20.8446 42.545 20.8446 42.692 20.8935C42.888 20.9914 43.133 21.0893 43.378 21.0404C43.77 21.1382 44.113 21.1872 44.505 21.285C44.603 21.4808 44.75 21.6765 44.848 21.8723C44.946 21.9701 45.093 22.068 45.191 22.117C45.24 22.1659 45.289 22.2148 45.338 22.2638C45.485 22.4106 45.681 22.3616 45.877 22.3616C46.318 22.3127 46.759 22.1659 47.102 22.5084L47.2 22.6063C47.347 22.8021 47.151 23.0957 47.298 23.2914C47.396 23.3404 47.445 23.3893 47.543 23.4382C47.739 23.5361 47.886 23.3893 48.082 23.3404C48.278 23.2914 48.425 23.2425 48.572 23.3404C48.621 23.3893 48.67 23.4382 48.719 23.4382C48.67 23.9276 48.915 23.634 49.111 23.7808Z" fill="#97B9D3"/>
</g>
<defs>
<clipPath id="clip0_10_348">
<rect width="49" height="23" fill="white" transform="translate(8 16)"/>
</clipPath>
</defs>
</svg>
