<svg width="114" height="114" viewBox="0 0 114 114" fill="none" xmlns="http://www.w3.org/2000/svg">
<path d="M73.4766 10.6875V20.4844H86.5888L73.1426 33.9306C57.9574 22.161 35.959 23.2431 22.0341 37.1747C6.92906 52.2819 6.92906 76.8587 22.043 91.957C29.3139 99.2062 39.1624 103.277 49.4297 103.277C59.697 103.277 69.5454 99.2062 76.8164 91.957C90.748 78.0232 91.8301 56.0337 80.0605 40.8485L93.5156 27.4112V40.5234H103.312V10.6875H73.4766ZM69.8962 85.0369C64.4643 90.4576 57.1037 93.5019 49.4297 93.5019C41.7557 93.5019 34.3951 90.4576 28.9631 85.0369C17.6767 73.7527 17.6767 55.388 28.9631 44.1038C40.2496 32.8195 58.612 32.8173 69.8962 44.1038C81.1805 55.3902 81.1827 73.7527 69.8962 85.0369Z" fill="#1B75BB"/>
</svg>
