<svg width="385" height="181" viewBox="0 0 385 181" fill="none" xmlns="http://www.w3.org/2000/svg">
<g clip-path="url(#clip0_5_225)">
<path d="M323.015 61.2317C323.785 62.387 324.94 63.9275 325.71 65.0828C326.865 65.853 327.635 64.6977 328.405 64.3126C329.175 62.0019 326.865 60.4615 327.635 58.1509C328.405 56.9955 329.175 56.6104 330.33 57.3807C333.025 58.9211 336.105 58.1509 339.185 58.9211C340.725 59.6913 342.265 60.4615 343.805 60.8466C346.115 62.387 346.885 64.3126 346.885 67.0083C346.5 73.17 347.27 78.9466 346.5 85.1083C346.115 85.1083 345.345 85.1083 345.345 85.8785C344.96 87.0338 342.65 85.1083 342.65 87.419C344.575 89.7296 343.805 92.8104 345.73 95.1211C346.5 95.8913 345.345 97.0466 344.575 96.6615C340.725 94.3509 338.8 97.4317 336.105 98.9721C334.18 100.127 333.025 102.053 331.485 103.208C330.33 103.208 329.56 104.364 328.79 105.134C328.02 105.904 327.25 107.059 325.71 105.519C324.94 104.749 324.17 104.749 323.785 105.134C321.86 106.674 319.55 106.674 317.24 107.059C313.775 107.444 311.465 110.525 310.695 114.762C311.08 115.917 313.005 115.532 313.39 116.687C313.775 118.613 313.39 120.153 311.08 121.693C309.155 122.849 310.31 125.159 309.925 127.085C308.385 127.855 307.23 129.01 307.23 130.936C307.23 131.706 306.46 132.091 305.69 132.476C303.38 132.091 302.995 134.017 302.61 135.557C302.225 136.713 301.455 137.868 300.3 137.483C299.145 137.098 299.145 135.942 299.145 134.787C298.76 132.091 298.76 129.396 298.375 127.085C297.99 125.93 297.99 124.774 298.375 123.619C298.375 121.693 297.99 119.768 299.915 118.227C300.3 116.687 301.07 115.147 302.995 114.762C304.15 114.762 304.535 113.606 305.305 112.836C308 109.37 310.31 105.904 313.775 102.823C314.93 101.668 315.7 100.513 315.7 98.9721C315.7 98.2019 317.24 96.6615 315.7 96.2764C314.545 95.8913 313.005 96.6615 313.005 98.587C312.62 100.898 311.08 101.668 309.54 102.823C308.77 103.208 307.615 103.593 307.23 102.438C306.075 97.8168 302.995 100.127 301.07 100.898C298.375 102.823 295.68 105.134 295.68 108.985C295.68 110.91 294.14 110.525 293.37 110.91C292.215 111.296 290.675 111.681 290.29 110.525C288.75 106.674 286.44 107.83 283.745 108.985C281.435 109.755 278.74 108.6 276.43 109.755C275.66 109.755 275.275 109.755 274.505 109.755C273.35 110.525 272.195 109.755 271.04 110.525C268.345 111.296 267.575 113.606 266.035 115.532C263.34 118.613 260.26 120.923 258.335 124.774C256.41 126.7 258.335 127.085 259.875 127.47L260.645 128.24C261.415 129.396 262.185 130.936 264.11 129.396C265.65 128.24 266.805 128.625 267.575 130.166C268.345 131.321 268.73 132.862 269.5 134.017C269.885 134.787 269.885 135.557 269.5 135.942C267.575 137.868 268.345 140.564 267.575 142.874C266.42 147.881 262.955 152.117 260.645 156.738C259.49 158.664 257.95 160.204 256.025 161.359C254.485 162.13 252.56 163.285 250.635 162.13C250.25 162.515 249.865 162.515 249.865 162.13C248.71 158.279 248.71 157.893 252.56 155.968C252.945 155.583 253.33 155.198 253.715 154.813C254.485 152.502 256.025 150.191 256.41 147.881C256.025 147.496 256.025 147.496 255.64 147.496C251.79 149.806 248.71 149.421 246.785 145.185L246.4 144.8C241.395 143.644 240.625 138.638 238.7 134.787C237.16 131.706 232.155 129.781 229.075 131.321C228.305 131.706 227.92 132.476 227.92 133.247C228.305 137.098 224.84 139.023 223.685 142.104C223.3 143.259 221.76 143.259 220.605 142.874C219.835 142.489 218.68 142.104 217.525 142.104C215.6 141.719 213.675 142.104 211.75 142.874C207.9 144.415 204.05 145.955 200.2 141.719C198.66 140.179 196.735 140.564 194.81 140.949C192.885 141.334 190.96 140.949 189.805 139.023C188.265 136.713 185.57 136.713 183.26 136.327C181.72 135.942 181.335 137.868 181.335 139.023C181.335 141.719 179.795 142.104 177.485 142.104C175.945 142.104 174.405 141.334 172.865 140.564C170.17 139.023 167.09 139.023 164.78 141.334C161.315 144.8 158.235 144.03 153.615 140.564C152.075 139.408 150.535 138.253 148.225 138.253C145.145 138.253 142.45 137.098 141.295 133.632C140.91 132.476 140.14 131.321 139.755 130.166C138.6 128.24 137.445 125.93 134.75 128.625C134.365 129.01 133.595 129.396 133.21 129.01C130.9 127.085 126.665 128.625 125.51 124.389C125.125 122.849 123.2 123.234 122.045 123.619C120.12 124.004 118.58 124.774 116.655 125.544C115.115 126.315 113.575 127.085 112.035 127.085C107.03 126.315 105.875 129.781 104.72 133.247C104.335 134.402 104.335 134.787 105.105 135.557C107.415 137.483 105.875 137.868 103.95 138.253C102.795 138.638 102.025 138.638 100.87 138.253C100.1 137.868 98.9448 137.483 98.1748 137.868C94.3248 139.408 91.2448 137.483 88.1648 136.327C86.2398 135.557 84.6998 135.942 83.1598 137.098C81.6198 138.253 80.4648 139.408 78.9248 140.179C76.9998 140.949 77.3848 142.874 76.9998 144.415C76.2298 146.34 77.3848 147.11 78.9248 147.881C79.6948 148.266 80.0798 149.036 80.4648 149.421C81.2348 151.347 81.2348 153.272 78.9248 154.813C77.3848 155.583 77.3848 157.123 77.7698 158.664C78.5398 160.589 78.9248 162.13 79.6948 164.055C79.6948 167.136 78.1548 166.366 76.6148 165.596C72.3798 162.9 67.7598 161.744 63.1398 160.589C62.7548 160.589 62.3698 160.204 61.9848 160.204C57.3648 157.508 56.9798 156.738 58.9048 151.732C59.2898 150.576 59.6748 149.806 60.0598 148.651C61.5998 147.496 62.7548 146.725 62.3698 144.415C61.9848 142.104 60.4448 141.719 58.5198 140.949C55.0548 140.179 51.9748 138.253 50.8198 134.787C50.4348 133.632 49.2798 133.632 48.1248 134.017C46.1998 134.017 45.8148 133.247 45.8148 131.321C46.1998 128.24 43.8898 123.234 41.1948 121.308C36.9598 118.613 36.1898 111.296 39.6548 107.444C40.4248 105.519 40.8098 103.979 39.6548 102.053C39.2698 101.668 39.6548 101.283 39.6548 101.283C40.8098 100.127 41.9648 98.9722 43.1198 97.8168C44.6598 95.8913 45.0448 93.9658 43.8898 91.27C42.3498 88.1892 41.1948 84.7232 42.7348 80.8721C43.1198 79.7168 43.1198 78.5615 42.7348 77.7913C41.9648 75.4807 40.8098 73.17 41.9648 70.8594C42.3498 69.7041 41.5798 68.9338 41.1948 68.1636C40.0398 66.6232 39.6548 65.0828 40.4248 63.1573C40.8098 62.387 41.5798 62.387 42.3498 61.6168C43.5048 60.8466 44.2748 60.0764 45.4298 59.3062C46.1998 58.9211 46.9698 57.7658 48.5098 58.536C48.8948 59.3062 49.6648 60.0764 50.4348 60.4615C52.3598 62.0019 55.0548 60.8466 57.3648 62.387C58.1348 63.1573 59.2898 63.9275 60.0598 64.3126C61.5998 66.6232 64.2948 67.3934 65.4498 69.7041C66.2198 71.2445 66.2198 72.7849 65.4498 74.3253C61.5998 79.3317 57.3648 76.636 53.5148 74.7104C52.7448 74.3253 51.5898 73.17 50.4348 74.3253C49.6648 75.0955 50.8198 76.2509 51.2048 77.0211C53.1298 79.3317 52.3598 82.4126 53.1298 85.1083C53.8998 86.6487 55.4398 86.6487 56.5948 87.0338C56.9798 87.4189 57.3648 87.4189 58.1348 87.0338V86.6487C57.7498 82.7977 57.7498 82.7977 61.2148 84.3381C63.9098 85.1083 64.2948 85.1083 63.9098 82.4126C64.2948 78.1764 66.9898 75.4807 70.0698 76.2509C70.8398 76.636 71.6098 77.0211 71.9948 76.2509C72.3798 75.4807 73.5348 74.7104 72.7648 73.5551C70.4548 70.8594 72.7648 68.1636 71.6098 65.4679C71.6098 65.4679 72.3798 65.0828 72.7648 64.6977C74.3048 65.0828 75.8448 65.0828 76.9998 66.6232C77.3848 68.5487 76.2298 69.319 75.0748 70.0892C74.6898 71.2445 75.4598 72.3998 75.8448 73.5551L76.6148 74.3253C78.1548 75.0955 79.3098 73.9402 80.8498 73.5551C81.6198 72.3998 80.8498 71.2445 81.6198 70.0892C82.3898 69.319 83.5448 68.5487 84.3148 68.1636C85.4698 67.3934 86.6248 67.0083 87.7798 66.2381C88.9348 65.4679 90.0898 64.6977 91.2448 64.3126C92.0148 63.9275 92.7848 63.9275 92.7848 65.0828V65.853C92.7848 67.3934 93.9398 67.0083 94.3248 66.6232C95.8648 65.0828 98.1748 65.853 100.1 65.0828C101.255 64.6977 102.025 63.9275 103.18 64.6977C103.95 65.0828 104.72 66.2381 105.49 64.6977C106.26 63.5424 107.8 62.7721 106.645 60.8466C105.875 59.6913 105.105 58.536 107.415 57.7658C108.955 58.1509 110.495 58.536 112.035 59.3062C113.96 60.4615 115.5 62.0019 117.425 63.1573C118.195 63.9275 119.35 64.6977 120.12 65.0828C120.89 65.853 121.275 67.3934 122.43 66.2381C123.2 65.4679 123.585 64.6977 122.815 63.1573C120.505 60.0764 119.35 56.6104 119.35 52.7594C118.58 51.219 118.965 49.6785 120.12 48.1381C122.43 44.6721 123.2 40.8211 124.74 37.3551C125.895 37.3551 127.05 37.7402 128.205 38.1253C128.59 38.8956 129.36 38.8955 130.13 38.8955C131.285 40.436 130.9 41.9764 130.13 43.5168C128.205 46.5977 128.59 49.2934 130.13 52.3743C131.285 55.8402 130.515 58.9211 130.9 62.387C133.595 66.6232 130.9 70.0892 129.745 73.9402C129.36 75.0956 127.82 76.2509 129.745 77.4062C130.9 76.636 132.055 75.4807 133.21 74.7104C134.75 73.9402 133.98 72.3998 134.365 71.2445C135.905 68.9338 135.52 62.7721 133.595 61.6168C132.44 60.4615 133.21 58.9211 133.595 57.7658C134.75 54.6849 134.365 51.9892 132.825 48.9083C132.055 47.753 132.825 46.5977 133.595 45.4424C136.29 43.9019 134.75 41.2062 135.52 38.5104C137.445 41.2062 136.29 43.9019 136.29 46.5977C136.29 47.3679 135.905 48.5232 137.06 48.5232C138.6 48.5232 137.83 47.3679 137.83 46.5977C137.445 44.287 138.985 43.5168 140.525 42.3615C142.065 41.9764 143.605 41.9764 145.145 42.3615C145.915 41.9764 147.07 45.0572 147.84 42.3615C146.685 39.2807 147.455 36.1998 147.455 33.1189C147.455 31.5785 148.995 31.5785 150.15 30.8083C151.305 30.0381 152.46 31.1934 153.615 31.1934C155.54 31.1934 157.85 31.1934 159.775 30.0381C158.235 24.6466 159.39 22.336 163.24 20.7956C165.55 18.4849 167.86 16.5594 171.325 16.1743C172.865 15.4041 174.02 13.8636 175.945 13.4785C177.87 11.9381 179.025 15.4041 180.565 14.2487C181.335 12.7083 182.49 11.9381 184.03 10.7828C184.415 10.3977 184.8 10.3977 185.185 10.3977C187.88 10.7828 189.035 10.0126 188.65 7.31682C188.65 6.93172 189.035 6.54661 189.035 6.16151C189.805 3.46576 191.73 1.92534 193.655 0.384911C194.81 -0.385302 195.58 -0.385302 196.735 0.384911C197.89 1.54023 197.505 1.92534 196.735 2.69555C195.965 3.46576 196.735 3.85087 197.12 4.62108C198.275 5.3913 199.815 5.3913 200.585 6.54661C200.585 7.31683 200.2 8.47214 201.355 9.24236C202.51 9.24236 202.51 7.70193 203.28 7.70193C205.205 7.31682 207.515 7.31682 209.44 7.70193C210.595 8.85725 211.75 10.0126 212.905 11.553C215.985 15.019 215.6 18.0998 212.135 21.1807C210.98 22.336 209.055 23.1062 208.285 24.6466C207.9 25.4168 207.13 26.187 206.36 26.5722C205.205 30.4232 208.67 29.653 210.21 30.8083C210.98 31.9636 212.135 30.4232 212.905 30.8083C212.905 31.9636 212.905 33.119 213.675 33.5041C214.06 33.8892 214.445 33.119 214.83 32.7338C216.755 30.8083 218.68 31.5785 220.99 31.9636C222.145 32.3487 223.3 32.3487 224.455 33.5041C224.84 34.2743 224.84 34.6594 225.225 35.4296C228.305 35.4296 231.385 36.97 234.465 36.1998C234.465 35.0445 234.465 33.5041 234.465 32.3487C235.62 31.5785 236.775 32.7338 237.93 33.1189C241.01 33.1189 243.32 34.6594 244.86 37.3551C246.015 40.8211 244.09 44.6721 246.4 48.1381C247.555 49.2934 248.325 50.8339 249.48 51.6041C252.56 51.219 249.095 45.0572 254.485 46.5977C255.64 47.3679 256.41 46.9828 257.565 46.5977C258.72 46.2126 259.49 45.8275 260.645 46.5977C261.8 47.753 263.34 48.1381 264.88 47.3679C266.035 46.5977 267.19 47.753 268.345 46.5977C267.96 43.9019 265.265 40.8211 269.115 38.5104C270.27 38.1253 271.425 38.1253 272.58 38.5104C274.12 39.2807 276.045 40.0509 277.97 39.6658C281.05 40.436 283.745 40.8211 286.825 41.5913C287.595 43.1317 288.75 44.6721 289.52 46.2126C290.29 46.9828 291.445 47.753 292.215 48.1381C292.6 48.5232 292.985 48.9083 293.37 49.2934C294.525 50.4487 296.065 50.0636 297.605 50.0636C301.07 49.6785 304.535 48.5232 307.23 51.2189L308 51.9892C309.155 53.5296 307.615 55.8402 308.77 57.3807C309.54 57.7658 309.925 58.1509 310.695 58.536C312.235 59.3062 313.39 58.1509 314.93 57.7658C316.47 57.3807 317.625 56.9955 318.78 57.7658C319.165 58.1509 319.55 58.536 319.935 58.536C319.55 62.387 321.475 60.0764 323.015 61.2317Z" fill="#97B9D3"/>
</g>
<defs>
<clipPath id="clip0_5_225">
<rect width="385" height="181" fill="white"/>
</clipPath>
</defs>
</svg>
