<svg width="32" height="32" viewBox="0 0 32 32" fill="none" xmlns="http://www.w3.org/2000/svg">
<path d="M16 29.6606C23.46 29.6606 29.6605 23.4731 29.6605 16C29.6605 8.53999 23.4463 2.33942 15.9863 2.33942C8.51368 2.33942 2.33997 8.53999 2.33997 16C2.33997 23.4731 8.52682 29.6606 16 29.6606ZM16.0005 27.384C9.67825 27.384 4.62854 22.3211 4.62854 16C4.62854 9.69142 9.66454 4.61599 15.9863 4.61599C22.2943 4.61599 27.3697 9.69199 27.3834 16C27.3965 22.3217 22.3074 27.384 15.9994 27.384M10.6554 23.3526C10.9771 23.6074 11.3651 23.5131 11.8474 23.1651L16 20.1257L20.152 23.1657C20.6205 23.5143 21.0091 23.6074 21.3434 23.3531C21.652 23.112 21.7051 22.724 21.5177 22.1748L19.8834 17.2863L24.076 14.2994C24.5445 13.9651 24.7457 13.6034 24.6114 13.2148C24.4777 12.8531 24.1297 12.6663 23.54 12.6663L18.4108 12.7063L16.844 7.79084C16.6697 7.2417 16.4017 6.94684 16 6.94684C15.5983 6.94684 15.3171 7.2417 15.156 7.79084L13.5891 12.7057L8.44625 12.6657C7.87025 12.6657 7.4954 12.8531 7.37482 13.2148C7.26797 13.6034 7.44168 13.9651 7.92397 14.2994L12.1028 17.2863L10.4685 22.1748C10.2811 22.7234 10.3348 23.112 10.656 23.3531" fill="#97B9D3"/>
</svg>
