<svg width="32" height="32" viewBox="0 0 32 32" fill="none" xmlns="http://www.w3.org/2000/svg">
<path d="M32 21.5C32 24.5375 30.3135 27 27 27H5C1.6865 27 0 24.5375 0 21.5V10.5C0 7.4625 1.6865 5 5 5H27C30.3135 5 32 7.4625 32 10.5V21.5Z" fill="#E6E7E8"/>
<path d="M17.2625 14.323C17.814 14.0805 18.38 14.0685 18.962 14.286C19.5725 14.5155 19.9915 14.8785 20.218 15.377C20.4455 15.8765 20.4725 16.4935 20.3005 17.229C20.704 15.9405 20.6575 14.75 20.16 13.6585C19.664 12.5685 18.82 11.7985 17.6275 11.353C16.465 10.916 15.3065 10.9565 14.153 11.4685C12.999 11.9815 12.2075 12.8125 11.7775 13.958C11.5455 14.5805 11.5535 15.18 11.8065 15.7565C12.0585 16.3335 12.4855 16.734 13.087 16.9595C13.6695 17.177 14.236 17.1655 14.789 16.927C15.3425 16.687 15.7435 16.279 15.9935 15.6985L16.055 15.553C16.3085 14.9755 16.7115 14.565 17.2625 14.323Z" fill="#EC1C24"/>
<path d="M14.8155 16.8645C14.2635 17.1075 13.697 17.1195 13.117 16.9025C12.506 16.6735 12.0865 16.3095 11.86 15.8105C11.6335 15.312 11.606 14.695 11.7765 13.96C11.374 15.2475 11.4215 16.4375 11.918 17.5285C12.415 18.6205 13.2585 19.3885 14.45 19.835C15.613 20.2705 16.7715 20.2305 17.926 19.72C19.0785 19.2065 19.871 18.3765 20.2995 17.2305C20.5335 16.608 20.5255 16.008 20.2725 15.4325C20.0195 14.8555 19.5925 14.4545 18.99 14.229C18.4095 14.011 17.843 14.0225 17.29 14.2615C16.737 14.501 16.3355 14.9105 16.0855 15.489L16.0235 15.635C15.7705 16.211 15.3665 16.622 14.8155 16.8645Z" fill="#1B75BB"/>
<path d="M12.02 7.72546C12.052 7.758 12.0699 7.80182 12.0699 7.84746C12.0699 7.8931 12.052 7.93692 12.02 7.96946L8.97101 11.0175C8.95508 11.0334 8.93617 11.0461 8.91534 11.0548C8.89451 11.0635 8.87217 11.068 8.84961 11.068C8.82705 11.0681 8.80469 11.0637 8.78383 11.0551C8.76296 11.0465 8.74399 11.0339 8.72801 11.018C8.71202 11.002 8.69932 10.9831 8.69064 10.9623C8.68197 10.9415 8.67748 10.9191 8.67743 10.8966C8.67738 10.874 8.68178 10.8516 8.69037 10.8308C8.69897 10.8099 8.71158 10.7909 8.72751 10.775L11.776 7.72596C11.792 7.70984 11.8109 7.69704 11.8319 7.68828C11.8528 7.67953 11.8752 7.675 11.8979 7.67495C11.9206 7.67491 11.943 7.67935 11.964 7.68801C11.985 7.69668 12.004 7.70941 12.02 7.72546ZM12.57 8.27496C12.5861 8.2909 12.5988 8.30987 12.6075 8.33077C12.6162 8.35166 12.6207 8.37407 12.6207 8.39671C12.6207 8.41935 12.6162 8.44176 12.6075 8.46266C12.5988 8.48355 12.5861 8.50252 12.57 8.51846L9.52301 11.567C9.49059 11.5992 9.44673 11.6173 9.40101 11.6173C9.35528 11.6173 9.31142 11.5992 9.27901 11.567C9.26274 11.5511 9.24981 11.5321 9.24099 11.5112C9.23216 11.4902 9.22761 11.4677 9.22761 11.445C9.22761 11.4222 9.23216 11.3997 9.24099 11.3788C9.24981 11.3578 9.26274 11.3388 9.27901 11.323L12.3275 8.27496C12.3597 8.24281 12.4033 8.22475 12.4488 8.22475C12.4942 8.22475 12.5378 8.24281 12.57 8.27496ZM13.14 8.84546C13.1563 8.86134 13.1692 8.88032 13.178 8.90127C13.1869 8.92222 13.1914 8.94473 13.1914 8.96746C13.1914 8.9902 13.1869 9.0127 13.178 9.03365C13.1692 9.0546 13.1563 9.07358 13.14 9.08946L10.091 12.1385C10.0751 12.1545 10.0563 12.1672 10.0355 12.1759C10.0146 12.1846 9.99231 12.1891 9.96976 12.1891C9.9472 12.1891 9.92487 12.1846 9.90406 12.1759C9.88324 12.1672 9.86436 12.1545 9.84851 12.1385C9.81611 12.106 9.79791 12.0621 9.79791 12.0162C9.79791 11.9704 9.81611 11.9264 9.84851 11.894L12.8965 8.84546C12.9124 8.82939 12.9314 8.81664 12.9523 8.80793C12.9732 8.79923 12.9956 8.79475 13.0183 8.79475C13.0409 8.79475 13.0633 8.79923 13.0842 8.80793C13.1051 8.81664 13.1241 8.82939 13.14 8.84546ZM21.505 9.32296C21.577 9.26646 21.645 9.20496 21.714 9.14396L20.296 7.72546C20.2636 7.6931 20.2198 7.67493 20.174 7.67493C20.1282 7.67493 20.0844 7.6931 20.052 7.72546C20.0196 7.75782 20.0015 7.8017 20.0015 7.84746C20.0015 7.89322 20.0196 7.9371 20.052 7.96946L21.4595 9.37646C21.471 9.35581 21.4865 9.33762 21.505 9.32296ZM23.345 10.7745L21.9685 9.39746C21.883 9.47396 21.796 9.55046 21.7055 9.62146L23.101 11.017C23.1339 11.0454 23.1763 11.0604 23.2198 11.0588C23.2633 11.0573 23.3046 11.0395 23.3354 11.0088C23.3662 10.9781 23.3844 10.937 23.3862 10.8935C23.3879 10.8501 23.3732 10.8075 23.345 10.7745ZM22.7955 11.565C22.7632 11.5972 22.7194 11.6153 22.6738 11.6153C22.6281 11.6153 22.5843 11.5972 22.552 11.565L19.503 8.51646C19.4859 8.50069 19.4722 8.48163 19.4627 8.46043C19.4532 8.43922 19.448 8.41632 19.4476 8.39308C19.4471 8.36984 19.4514 8.34675 19.4601 8.32519C19.4688 8.30364 19.4817 8.28406 19.4982 8.26765C19.5147 8.25123 19.5343 8.2383 19.5558 8.22965C19.5774 8.22099 19.6005 8.21679 19.6237 8.21729C19.647 8.21778 19.6699 8.22297 19.6911 8.23254C19.7122 8.2421 19.7313 8.25585 19.747 8.27296L22.7955 11.321C22.8115 11.337 22.8242 11.356 22.8329 11.3769C22.8416 11.3979 22.8461 11.4203 22.8461 11.443C22.8461 11.4656 22.8416 11.4881 22.8329 11.509C22.8242 11.5299 22.8115 11.5489 22.7955 11.565ZM20.3205 10.462C20.4095 10.393 20.484 10.31 20.553 10.2205L19.1775 8.84546C19.1617 8.82839 19.1427 8.81468 19.1215 8.80515C19.1003 8.79563 19.0774 8.79049 19.0541 8.79004C19.0309 8.78959 19.0078 8.79384 18.9862 8.80254C18.9647 8.81124 18.9451 8.8242 18.9287 8.84066C18.9123 8.85711 18.8993 8.87671 18.8907 8.89828C18.882 8.91985 18.8778 8.94295 18.8783 8.96619C18.8788 8.98943 18.884 9.01233 18.8936 9.03351C18.9031 9.05469 18.9169 9.07373 18.934 9.08946L20.3155 10.47C20.315 10.4695 20.3175 10.466 20.3205 10.462ZM22.225 11.894L20.808 10.477C20.735 10.567 20.6535 10.6485 20.5665 10.722L21.9815 12.138C21.9973 12.1542 22.0163 12.1671 22.0372 12.176C22.0581 12.1848 22.0806 12.1893 22.1033 12.1893C22.126 12.1893 22.1484 12.1848 22.1693 12.176C22.1902 12.1671 22.2092 12.1542 22.225 12.138C22.241 12.1219 22.2537 12.1029 22.2624 12.082C22.2711 12.0611 22.2756 12.0386 22.2756 12.016C22.2756 11.9933 22.2711 11.9709 22.2624 11.9499C22.2537 11.929 22.241 11.91 22.225 11.894ZM21.479 21.839L20.111 23.208C20.0788 23.2403 20.0607 23.2841 20.0607 23.3297C20.0607 23.3754 20.0788 23.4191 20.111 23.4515C20.1269 23.4675 20.1459 23.4803 20.1668 23.489C20.1877 23.4977 20.2101 23.5022 20.2328 23.5022C20.2554 23.5022 20.2778 23.4977 20.2987 23.489C20.3196 23.4803 20.3386 23.4675 20.3545 23.4515L21.713 22.092C21.6355 22.007 21.558 21.923 21.479 21.839ZM23.4035 20.16C23.3708 20.1279 23.3268 20.11 23.2809 20.1103C23.2351 20.1106 23.1913 20.129 23.159 20.1615L21.7345 21.585C21.813 21.6705 21.891 21.754 21.969 21.838L23.4035 20.4045C23.4353 20.3717 23.4531 20.3279 23.4531 20.2822C23.4531 20.2366 23.4353 20.1927 23.4035 20.16ZM20.9445 21.2765L19.561 22.6585C19.529 22.691 19.5111 22.7348 19.5111 22.7805C19.5111 22.8261 19.529 22.8699 19.561 22.9025C19.5935 22.9349 19.6376 22.9531 19.6835 22.9531C19.7294 22.9531 19.7735 22.9349 19.806 22.9025L21.182 21.5255C21.102 21.4415 21.0245 21.3575 20.9445 21.2765ZM22.853 19.61C22.8372 19.5939 22.8184 19.5812 22.7976 19.5725C22.7768 19.5638 22.7545 19.5594 22.732 19.5594C22.7095 19.5594 22.6872 19.5638 22.6664 19.5725C22.6457 19.5812 22.6268 19.5939 22.611 19.61L21.2 21.02C21.281 21.102 21.358 21.1855 21.4385 21.269L22.8535 19.8535C22.8697 19.8376 22.8826 19.8186 22.8914 19.7977C22.9002 19.7768 22.9047 19.7543 22.9046 19.7316C22.9046 19.7089 22.9 19.6865 22.8911 19.6656C22.8822 19.6447 22.8693 19.6258 22.853 19.61ZM20.35 20.7295L18.99 22.088C18.9582 22.1206 18.9405 22.1644 18.9405 22.21C18.9405 22.2555 18.9582 22.2993 18.99 22.332C19.0225 22.3644 19.0666 22.3826 19.1125 22.3826C19.1584 22.3826 19.2025 22.3644 19.235 22.332L20.604 20.961C20.52 20.884 20.439 20.802 20.35 20.7295ZM20.862 20.705L22.2825 19.2825C22.2988 19.2666 22.3118 19.2477 22.3207 19.2267C22.3295 19.2057 22.3341 19.1832 22.3341 19.1605C22.3341 19.1377 22.3295 19.1152 22.3207 19.0942C22.3118 19.0733 22.2988 19.0543 22.2825 19.0385C22.2666 19.0224 22.2478 19.0097 22.227 19.001C22.2061 18.9923 22.1838 18.9878 22.1613 18.9878C22.1387 18.9878 22.1164 18.9923 22.0956 19.001C22.0747 19.0097 22.0559 19.0224 22.04 19.0385L20.6065 20.472C20.696 20.5465 20.777 20.627 20.862 20.705ZM10.624 21.854C10.552 21.91 10.4845 21.972 10.4145 22.033L11.8335 23.4515C11.8494 23.4675 11.8683 23.4803 11.8892 23.489C11.91 23.4977 11.9324 23.5021 11.955 23.5021C11.9776 23.5021 12 23.4977 12.0208 23.489C12.0417 23.4803 12.0606 23.4675 12.0765 23.4515C12.0926 23.4356 12.1054 23.4166 12.1142 23.3957C12.1229 23.3748 12.1274 23.3524 12.1274 23.3297C12.1274 23.3071 12.1229 23.2846 12.1142 23.2637C12.1054 23.2428 12.0926 23.2239 12.0765 23.208L10.67 21.8C10.658 21.8205 10.6424 21.8388 10.624 21.854ZM8.78551 20.4025L10.1615 21.7795C10.2475 21.7035 10.333 21.6265 10.424 21.556L9.02851 20.16C8.99571 20.131 8.95314 20.1157 8.90944 20.1171C8.86574 20.1184 8.8242 20.1363 8.79325 20.1672C8.76231 20.1981 8.74428 20.2396 8.74284 20.2833C8.7414 20.327 8.75666 20.3696 8.78551 20.4025ZM12.625 22.66L11.2355 21.2705C11.159 21.341 11.0835 21.4135 11.0035 21.4795C10.993 21.4885 10.9825 21.492 10.973 21.4975L12.3805 22.904C12.3965 22.92 12.4156 22.9328 12.4365 22.9415C12.4574 22.9502 12.4799 22.9546 12.5026 22.9547C12.5253 22.9547 12.5477 22.9503 12.5687 22.9416C12.5896 22.9329 12.6087 22.9202 12.6248 22.9042C12.6408 22.8882 12.6536 22.8692 12.6623 22.8482C12.671 22.8273 12.6754 22.8048 12.6755 22.7821C12.6755 22.7595 12.671 22.737 12.6624 22.716C12.6537 22.6951 12.641 22.676 12.625 22.66ZM10.7405 21.2315C10.8235 21.161 10.9015 21.087 10.9815 21.013L9.57751 19.61C9.56177 19.5929 9.54274 19.5791 9.52156 19.5695C9.50037 19.56 9.47747 19.5548 9.45424 19.5543C9.431 19.5538 9.4079 19.558 9.38633 19.5666C9.36475 19.5753 9.34515 19.5882 9.3287 19.6046C9.31225 19.6211 9.29928 19.6406 9.29059 19.6622C9.28189 19.6837 9.27764 19.7068 9.27808 19.7301C9.27853 19.7533 9.28367 19.7762 9.2932 19.7974C9.30272 19.8186 9.31643 19.8377 9.33351 19.8535L10.7275 21.2475C10.7335 21.242 10.735 21.2375 10.7405 21.2315ZM9.90601 19.04C9.9218 19.0237 9.94069 19.0108 9.96156 19.002C9.98243 18.9932 10.0049 18.9886 10.0275 18.9886C10.0502 18.9886 10.0726 18.9932 10.0935 19.002C10.1143 19.0108 10.1332 19.0237 10.149 19.04L13.198 22.088C13.2302 22.1204 13.2483 22.1642 13.2483 22.21C13.2483 22.2557 13.2302 22.2995 13.198 22.332C13.1821 22.3481 13.1631 22.3609 13.1421 22.3697C13.1212 22.3784 13.0987 22.3829 13.076 22.3829C13.0533 22.3829 13.0308 22.3784 13.0099 22.3697C12.989 22.3609 12.97 22.3481 12.954 22.332L9.90601 19.283C9.88977 19.2672 9.87686 19.2483 9.86805 19.2274C9.85923 19.2065 9.85469 19.1841 9.85469 19.1615C9.85469 19.1388 9.85923 19.1164 9.86805 19.0955C9.87686 19.0746 9.88977 19.0558 9.90601 19.04Z" fill="#231F20"/>
<path d="M8.77802 20.155C8.79404 20.1389 8.81306 20.1262 8.83399 20.1176C8.85492 20.1089 8.87736 20.1044 8.90002 20.1044C8.92268 20.1044 8.94511 20.1089 8.96605 20.1176C8.98698 20.1262 9.006 20.1389 9.02202 20.155L12.0695 23.203C12.0855 23.219 12.0982 23.238 12.1069 23.2589C12.1156 23.2799 12.1201 23.3023 12.1201 23.325C12.1201 23.3476 12.1156 23.3701 12.1069 23.391C12.0982 23.4119 12.0855 23.4309 12.0695 23.447C12.0535 23.463 12.0345 23.4757 12.0135 23.4844C11.9926 23.493 11.9702 23.4975 11.9475 23.4975C11.9249 23.4975 11.9024 23.493 11.8815 23.4844C11.8606 23.4757 11.8415 23.463 11.8255 23.447L8.77802 20.399C8.76187 20.383 8.74905 20.364 8.7403 20.3431C8.73156 20.3221 8.72705 20.2997 8.72705 20.277C8.72705 20.2543 8.73156 20.2318 8.7403 20.2109C8.74905 20.1899 8.76187 20.1709 8.77802 20.155ZM11.81 20.715C11.7223 20.7851 11.6441 20.8665 11.5775 20.957L12.9525 22.332C12.9849 22.3643 13.0288 22.3825 13.0745 22.3825C13.1203 22.3825 13.1642 22.3643 13.1965 22.332C13.2289 22.2996 13.2471 22.2557 13.2471 22.21C13.2471 22.1642 13.2289 22.1203 13.1965 22.088L11.815 20.7075L11.81 20.715ZM9.90602 19.283L11.3215 20.7C11.395 20.61 11.4755 20.529 11.564 20.455L10.149 19.04C10.1332 19.0237 10.1143 19.0108 10.0935 19.002C10.0726 18.9932 10.0502 18.9886 10.0275 18.9886C10.0049 18.9886 9.98244 18.9932 9.96157 19.002C9.9407 19.0108 9.92181 19.0237 9.90602 19.04C9.88978 19.0558 9.87687 19.0746 9.86806 19.0955C9.85924 19.1164 9.8547 19.1388 9.8547 19.1615C9.8547 19.1841 9.85924 19.2065 9.86806 19.2274C9.87687 19.2483 9.88978 19.2672 9.90602 19.283Z" fill="#231F20"/>
</svg>
